<svg xmlns="http://www.w3.org/2000/svg" width="1920" height="1080"><path d="M568,1233L152,1297L821,1246Z" fill="#667c98" stroke="#667c98" stroke-width="1.51"/><path d="M821,1246L152,1297L1158,1291Z" fill="#4e7397" stroke="#4e7397" stroke-width="1.51"/><path d="M673,-244L1010,-193L1417,-262Z" fill="#a9d4ca" stroke="#a9d4ca" stroke-width="1.51"/><path d="M1158,1291L152,1297L1484,1314Z" fill="#366b96" stroke="#366b96" stroke-width="1.51"/><path d="M1793,1314L1484,1314L1936,1321Z" fill="#1b3581" stroke="#1b3581" stroke-width="1.51"/><path d="M1417,-262L1609,-244L1996,-222Z" fill="#9da2bb" stroke="#9da2bb" stroke-width="1.51"/><path d="M1609,-244L1743,-190L1996,-222Z" fill="#9c9ab6" stroke="#9c9ab6" stroke-width="1.51"/><path d="M1994,-11L2086,162L2101,-61Z" fill="#828495" stroke="#828495" stroke-width="1.51"/><path d="M1936,1321L1484,1314L2108,1331Z" fill="#1a2e7d" stroke="#1a2e7d" stroke-width="1.51"/><path d="M1949,485L2094,675L2126,434Z" fill="#376c9b" stroke="#376c9b" stroke-width="1.51"/><path d="M2086,162L2104,342L2126,434Z" fill="#557592" stroke="#557592" stroke-width="1.51"/><path d="M2101,-61L2086,162L2126,434Z" fill="#6e7d91" stroke="#6e7d91" stroke-width="1.51"/><path d="M2104,-167L2101,-61L2126,434Z" fill="#7b818f" stroke="#7b818f" stroke-width="1.51"/><path d="M1957,899L2072,1085L2170,938Z" fill="#1d408b" stroke="#1d408b" stroke-width="1.51"/><path d="M2062,801L1957,899L2170,938Z" fill="#1f4b90" stroke="#1f4b90" stroke-width="1.51"/><path d="M2094,675L2062,801L2170,938Z" fill="#1f5190" stroke="#1f5190" stroke-width="1.51"/><path d="M2072,1085L2108,1331L2170,938Z" fill="#1b2f7f" stroke="#1b2f7f" stroke-width="1.51"/><path d="M2104,-167L2126,434L2170,938Z" fill="#476f91" stroke="#476f91" stroke-width="1.51"/><path d="M2126,434L2094,675L2170,938Z" fill="#265c92" stroke="#265c92" stroke-width="1.51"/><path d="M1981,831L1957,899L2062,801Z" fill="#245199" stroke="#245199" stroke-width="1.51"/><path d="M1979,1064L1936,1321L2072,1085Z" fill="#203089" stroke="#203089" stroke-width="1.51"/><path d="M1957,899L1979,1064L2072,1085Z" fill="#203e8f" stroke="#203e8f" stroke-width="1.51"/><path d="M1949,485L1927,667L2094,675Z" fill="#3469a1" stroke="#3469a1" stroke-width="1.51"/><path d="M2086,162L1938,312L2104,342Z" fill="#617a98" stroke="#617a98" stroke-width="1.51"/><path d="M2072,1085L1936,1321L2108,1331Z" fill="#182a78" stroke="#182a78" stroke-width="1.51"/><path d="M2104,342L1949,485L2126,434Z" fill="#487199" stroke="#487199" stroke-width="1.51"/><path d="M1996,-222L1994,-11L2101,-61Z" fill="#8f8a99" stroke="#8f8a99" stroke-width="1.51"/><path d="M1996,-222L2101,-61L2104,-167Z" fill="#8d889a" stroke="#8d889a" stroke-width="1.51"/><path d="M1938,312L1949,485L2104,342Z" fill="#51779e" stroke="#51779e" stroke-width="1.51"/><path d="M1927,667L2062,801L2094,675Z" fill="#285f9c" stroke="#285f9c" stroke-width="1.51"/><path d="M1994,-11L1889,155L2086,162Z" fill="#80869c" stroke="#80869c" stroke-width="1.51"/><path d="M1889,155L1938,312L2086,162Z" fill="#70819f" stroke="#70819f" stroke-width="1.51"/><path d="M1927,667L1981,831L2062,801Z" fill="#265b9f" stroke="#265b9f" stroke-width="1.51"/><path d="M1796,1082L1793,1314L1936,1321Z" fill="#203289" stroke="#203289" stroke-width="1.51"/><path d="M1796,1082L1936,1321L1979,1064Z" fill="#253492" stroke="#253492" stroke-width="1.51"/><path d="M1957,899L1818,982L1979,1064Z" fill="#254599" stroke="#254599" stroke-width="1.51"/><path d="M1927,667L1830,763L1981,831Z" fill="#2b60a7" stroke="#2b60a7" stroke-width="1.51"/><path d="M1787,107L1889,155L1994,-11Z" fill="#878ba6" stroke="#878ba6" stroke-width="1.51"/><path d="M1764,-86L1994,-11L1996,-222Z" fill="#968fa5" stroke="#968fa5" stroke-width="1.51"/><path d="M1743,-190L1764,-86L1996,-222Z" fill="#9a95af" stroke="#9a95af" stroke-width="1.51"/><path d="M1938,312L1818,465L1949,485Z" fill="#5179a9" stroke="#5179a9" stroke-width="1.51"/><path d="M1764,-86L1787,107L1994,-11Z" fill="#9091a8" stroke="#9091a8" stroke-width="1.51"/><path d="M1889,155L1838,296L1938,312Z" fill="#6d82a8" stroke="#6d82a8" stroke-width="1.51"/><path d="M1818,465L1927,667L1949,485Z" fill="#3e73ab" stroke="#3e73ab" stroke-width="1.51"/><path d="M1830,763L1957,899L1981,831Z" fill="#2856a1" stroke="#2856a1" stroke-width="1.51"/><path d="M1818,982L1796,1082L1979,1064Z" fill="#26429b" stroke="#26429b" stroke-width="1.51"/><path d="M1010,-193L1180,-198L1417,-262Z" fill="#a3cac8" stroke="#a3cac8" stroke-width="1.51"/><path d="M1818,465L1752,616L1927,667Z" fill="#3b74ae" stroke="#3b74ae" stroke-width="1.51"/><path d="M1838,296L1818,465L1938,312Z" fill="#5a7eaa" stroke="#5a7eaa" stroke-width="1.51"/><path d="M1830,763L1818,982L1957,899Z" fill="#2853a3" stroke="#2853a3" stroke-width="1.51"/><path d="M1650,1271L1484,1314L1793,1314Z" fill="#1b3c86" stroke="#1b3c86" stroke-width="1.51"/><path d="M1752,616L1830,763L1927,667Z" fill="#326bac" stroke="#326bac" stroke-width="1.51"/><path d="M1787,107L1838,296L1889,155Z" fill="#798aa9" stroke="#798aa9" stroke-width="1.51"/><path d="M1633,187L1672,287L1787,107Z" fill="#7894ad" stroke="#7894ad" stroke-width="1.51"/><path d="M1650,1271L1793,1314L1796,1082Z" fill="#213a8f" stroke="#213a8f" stroke-width="1.51"/><path d="M1567,748L1564,992L1818,982Z" fill="#245ea8" stroke="#245ea8" stroke-width="1.51"/><path d="M1567,748L1818,982L1830,763Z" fill="#2862aa" stroke="#2862aa" stroke-width="1.51"/><path d="M1672,287L1818,465L1838,296Z" fill="#5b85ad" stroke="#5b85ad" stroke-width="1.51"/><path d="M1787,107L1672,287L1838,296Z" fill="#718dac" stroke="#718dac" stroke-width="1.51"/><path d="M673,-244L808,-207L1010,-193Z" fill="#b3dec6" stroke="#b3dec6" stroke-width="1.51"/><path d="M1642,570L1752,616L1818,465Z" fill="#3b7db1" stroke="#3b7db1" stroke-width="1.51"/><path d="M1752,616L1567,748L1830,763Z" fill="#2c71b0" stroke="#2c71b0" stroke-width="1.51"/><path d="M1764,-86L1618,-87L1787,107Z" fill="#939bab" stroke="#939bab" stroke-width="1.51"/><path d="M1581,1149L1650,1271L1796,1082Z" fill="#254299" stroke="#254299" stroke-width="1.51"/><path d="M1564,992L1796,1082L1818,982Z" fill="#264ea0" stroke="#264ea0" stroke-width="1.51"/><path d="M1672,287L1559,508L1818,465Z" fill="#4f88b1" stroke="#4f88b1" stroke-width="1.51"/><path d="M1559,508L1642,570L1818,465Z" fill="#3f84b3" stroke="#3f84b3" stroke-width="1.51"/><path d="M1618,-87L1633,187L1787,107Z" fill="#8a9aad" stroke="#8a9aad" stroke-width="1.51"/><path d="M1564,992L1581,1149L1796,1082Z" fill="#254da0" stroke="#254da0" stroke-width="1.51"/><path d="M1642,570L1567,748L1752,616Z" fill="#317bb3" stroke="#317bb3" stroke-width="1.51"/><path d="M1743,-190L1618,-87L1764,-86Z" fill="#999eaf" stroke="#999eaf" stroke-width="1.51"/><path d="M1511,427L1559,508L1672,287Z" fill="#5090b4" stroke="#5090b4" stroke-width="1.51"/><path d="M1609,-244L1618,-87L1743,-190Z" fill="#9ba3b5" stroke="#9ba3b5" stroke-width="1.51"/><path d="M1011,1254L821,1246L1158,1291Z" fill="#346a9c" stroke="#346a9c" stroke-width="1.51"/><path d="M1462,786L1564,992L1567,748Z" fill="#236fb1" stroke="#236fb1" stroke-width="1.51"/><path d="M1618,-87L1443,-70L1633,187Z" fill="#90a5b0" stroke="#90a5b0" stroke-width="1.51"/><path d="M1443,-70L1430,175L1633,187Z" fill="#88a8b3" stroke="#88a8b3" stroke-width="1.51"/><path d="M1633,187L1474,331L1672,287Z" fill="#6997b1" stroke="#6997b1" stroke-width="1.51"/><path d="M1474,331L1511,427L1672,287Z" fill="#5995b4" stroke="#5995b4" stroke-width="1.51"/><path d="M-36,-172L256,-160L673,-244Z" fill="#e2f4bd" stroke="#e2f4bd" stroke-width="1.51"/><path d="M1559,508L1410,660L1567,748Z" fill="#2e86b8" stroke="#2e86b8" stroke-width="1.51"/><path d="M1559,508L1567,748L1642,570Z" fill="#3283b5" stroke="#3283b5" stroke-width="1.51"/><path d="M1581,1149L1484,1314L1650,1271Z" fill="#1f4491" stroke="#1f4491" stroke-width="1.51"/><path d="M1609,-244L1443,-70L1618,-87Z" fill="#9baab5" stroke="#9baab5" stroke-width="1.51"/><path d="M1430,175L1474,331L1633,187Z" fill="#71a0b4" stroke="#71a0b4" stroke-width="1.51"/><path d="M1462,786L1401,942L1564,992Z" fill="#236caf" stroke="#236caf" stroke-width="1.51"/><path d="M1448,1177L1484,1314L1581,1149Z" fill="#234c99" stroke="#234c99" stroke-width="1.51"/><path d="M1417,-262L1443,-70L1609,-244Z" fill="#9db1bd" stroke="#9db1bd" stroke-width="1.51"/><path d="M1564,992L1448,1177L1581,1149Z" fill="#2753a3" stroke="#2753a3" stroke-width="1.51"/><path d="M1401,942L1448,1177L1564,992Z" fill="#265ea8" stroke="#265ea8" stroke-width="1.51"/><path d="M1410,660L1462,786L1567,748Z" fill="#2481b8" stroke="#2481b8" stroke-width="1.51"/><path d="M1511,427L1410,660L1559,508Z" fill="#3991ba" stroke="#3991ba" stroke-width="1.51"/><path d="M1417,-262L1320,-162L1443,-70Z" fill="#9eb9be" stroke="#9eb9be" stroke-width="1.51"/><path d="M1401,942L1297,1064L1448,1177Z" fill="#2863aa" stroke="#2863aa" stroke-width="1.51"/><path d="M1315,1233L1158,1291L1484,1314Z" fill="#215695" stroke="#215695" stroke-width="1.51"/><path d="M1474,331L1250,506L1511,427Z" fill="#4d9dba" stroke="#4d9dba" stroke-width="1.51"/><path d="M1250,506L1410,660L1511,427Z" fill="#389abe" stroke="#389abe" stroke-width="1.51"/><path d="M1228,92L1430,175L1443,-70Z" fill="#8db5b7" stroke="#8db5b7" stroke-width="1.51"/><path d="M1265,-57L1228,92L1443,-70Z" fill="#96bdb9" stroke="#96bdb9" stroke-width="1.51"/><path d="M1256,328L1250,506L1474,331Z" fill="#53a6bd" stroke="#53a6bd" stroke-width="1.51"/><path d="M1430,175L1256,328L1474,331Z" fill="#68a8b9" stroke="#68a8b9" stroke-width="1.51"/><path d="M1448,1177L1315,1233L1484,1314Z" fill="#235198" stroke="#235198" stroke-width="1.51"/><path d="M1410,660L1331,743L1462,786Z" fill="#2387bb" stroke="#2387bb" stroke-width="1.51"/><path d="M1331,743L1401,942L1462,786Z" fill="#237db7" stroke="#237db7" stroke-width="1.51"/><path d="M1300,982L1297,1064L1401,942Z" fill="#266db0" stroke="#266db0" stroke-width="1.51"/><path d="M1250,506L1267,662L1410,660Z" fill="#2e99c0" stroke="#2e99c0" stroke-width="1.51"/><path d="M1297,1064L1315,1233L1448,1177Z" fill="#2b5ba7" stroke="#2b5ba7" stroke-width="1.51"/><path d="M1320,-162L1265,-57L1443,-70Z" fill="#9dbdb9" stroke="#9dbdb9" stroke-width="1.51"/><path d="M1331,743L1300,982L1401,942Z" fill="#2378b5" stroke="#2378b5" stroke-width="1.51"/><path d="M1228,92L1256,328L1430,175Z" fill="#79b4bb" stroke="#79b4bb" stroke-width="1.51"/><path d="M1180,-198L1320,-162L1417,-262Z" fill="#a0c2c5" stroke="#a0c2c5" stroke-width="1.51"/><path d="M1267,662L1331,743L1410,660Z" fill="#2790be" stroke="#2790be" stroke-width="1.51"/><path d="M474,1229L152,1297L568,1233Z" fill="#748198" stroke="#748198" stroke-width="1.51"/><path d="M1228,92L1165,149L1256,328Z" fill="#7cbbbc" stroke="#7cbbbc" stroke-width="1.51"/><path d="M1297,1064L1083,1158L1315,1233Z" fill="#2e65ab" stroke="#2e65ab" stroke-width="1.51"/><path d="M1109,822L1300,982L1331,743Z" fill="#2385ba" stroke="#2385ba" stroke-width="1.51"/><path d="M1267,662L1109,822L1331,743Z" fill="#2193c0" stroke="#2193c0" stroke-width="1.51"/><path d="M1083,1158L1158,1291L1315,1233Z" fill="#2c62a0" stroke="#2c62a0" stroke-width="1.51"/><path d="M1180,-198L1265,-57L1320,-162Z" fill="#9fc5c0" stroke="#9fc5c0" stroke-width="1.51"/><path d="M1165,149L1113,243L1256,328Z" fill="#73babd" stroke="#73babd" stroke-width="1.51"/><path d="M1150,492L1250,506L1256,328Z" fill="#4bacc1" stroke="#4bacc1" stroke-width="1.51"/><path d="M1103,673L1109,822L1267,662Z" fill="#299ac2" stroke="#299ac2" stroke-width="1.51"/><path d="M1063,1014L1297,1064L1300,982Z" fill="#2a73b1" stroke="#2a73b1" stroke-width="1.51"/><path d="M1109,822L1063,1014L1300,982Z" fill="#2b7fb6" stroke="#2b7fb6" stroke-width="1.51"/><path d="M1063,1014L1083,1158L1297,1064Z" fill="#3271af" stroke="#3271af" stroke-width="1.51"/><path d="M1105,-90L1228,92L1265,-57Z" fill="#98c5bb" stroke="#98c5bb" stroke-width="1.51"/><path d="M1180,-198L1105,-90L1265,-57Z" fill="#a0c9be" stroke="#a0c9be" stroke-width="1.51"/><path d="M1250,506L1150,492L1267,662Z" fill="#34a5c3" stroke="#34a5c3" stroke-width="1.51"/><path d="M1150,492L1103,673L1267,662Z" fill="#32a2c2" stroke="#32a2c2" stroke-width="1.51"/><path d="M1113,243L1150,492L1256,328Z" fill="#5bb3bf" stroke="#5bb3bf" stroke-width="1.51"/><path d="M1105,-90L989,3L1165,149Z" fill="#98cbbc" stroke="#98cbbc" stroke-width="1.51"/><path d="M1105,-90L1165,149L1228,92Z" fill="#92c5bb" stroke="#92c5bb" stroke-width="1.51"/><path d="M1005,653L1103,673L1150,492Z" fill="#37a8c3" stroke="#37a8c3" stroke-width="1.51"/><path d="M1113,243L925,429L1150,492Z" fill="#59b8c0" stroke="#59b8c0" stroke-width="1.51"/><path d="M989,3L994,129L1165,149Z" fill="#91cabc" stroke="#91cabc" stroke-width="1.51"/><path d="M1010,-193L1105,-90L1180,-198Z" fill="#a4cfc3" stroke="#a4cfc3" stroke-width="1.51"/><path d="M1083,1158L1011,1254L1158,1291Z" fill="#3267a0" stroke="#3267a0" stroke-width="1.51"/><path d="M994,129L1113,243L1165,149Z" fill="#83c4bd" stroke="#83c4bd" stroke-width="1.51"/><path d="M-36,-172L119,-155L256,-160Z" fill="#ecf8b9" stroke="#ecf8b9" stroke-width="1.51"/><path d="M899,280L925,429L1113,243Z" fill="#68c1bf" stroke="#68c1bf" stroke-width="1.51"/><path d="M925,429L1005,653L1150,492Z" fill="#41b3c3" stroke="#41b3c3" stroke-width="1.51"/><path d="M256,-160L514,-185L673,-244Z" fill="#d1ecbf" stroke="#d1ecbf" stroke-width="1.51"/><path d="M1063,1014L987,1119L1083,1158Z" fill="#3975af" stroke="#3975af" stroke-width="1.51"/><path d="M958,989L1063,1014L1109,822Z" fill="#3386b6" stroke="#3386b6" stroke-width="1.51"/><path d="M938,779L958,989L1109,822Z" fill="#3492bb" stroke="#3492bb" stroke-width="1.51"/><path d="M1103,673L1005,653L1109,822Z" fill="#2f9fc2" stroke="#2f9fc2" stroke-width="1.51"/><path d="M1005,653L938,779L1109,822Z" fill="#309fc1" stroke="#309fc1" stroke-width="1.51"/><path d="M994,129L899,280L1113,243Z" fill="#7dc7be" stroke="#7dc7be" stroke-width="1.51"/><path d="M1010,-193L989,3L1105,-90Z" fill="#a4d2bd" stroke="#a4d2bd" stroke-width="1.51"/><path d="M987,1119L1011,1254L1083,1158Z" fill="#396fa9" stroke="#396fa9" stroke-width="1.51"/><path d="M958,989L987,1119L1063,1014Z" fill="#397db2" stroke="#397db2" stroke-width="1.51"/><path d="M356,1233L152,1297L474,1229Z" fill="#7c8398" stroke="#7c8398" stroke-width="1.51"/><path d="M938,779L832,914L958,989Z" fill="#3e92b9" stroke="#3e92b9" stroke-width="1.51"/><path d="M925,429L816,506L1005,653Z" fill="#49b8c4" stroke="#49b8c4" stroke-width="1.51"/><path d="M807,-59L989,3L1010,-193Z" fill="#a7d8bc" stroke="#a7d8bc" stroke-width="1.51"/><path d="M808,-207L807,-59L1010,-193Z" fill="#aedbc1" stroke="#aedbc1" stroke-width="1.51"/><path d="M987,1119L821,1246L1011,1254Z" fill="#3d71a5" stroke="#3d71a5" stroke-width="1.51"/><path d="M989,3L798,175L994,129Z" fill="#95d1bc" stroke="#95d1bc" stroke-width="1.51"/><path d="M798,175L899,280L994,129Z" fill="#87cdbc" stroke="#87cdbc" stroke-width="1.51"/><path d="M754,644L938,779L1005,653Z" fill="#40aac2" stroke="#40aac2" stroke-width="1.51"/><path d="M816,506L754,644L1005,653Z" fill="#4bb4c2" stroke="#4bb4c2" stroke-width="1.51"/><path d="M958,989L824,1102L987,1119Z" fill="#417eb1" stroke="#417eb1" stroke-width="1.51"/><path d="M824,1102L821,1246L987,1119Z" fill="#4877ac" stroke="#4877ac" stroke-width="1.51"/><path d="M807,-59L798,175L989,3Z" fill="#9fd6bb" stroke="#9fd6bb" stroke-width="1.51"/><path d="M796,831L832,914L938,779Z" fill="#449bbb" stroke="#449bbb" stroke-width="1.51"/><path d="M832,914L824,1102L958,989Z" fill="#4587b3" stroke="#4587b3" stroke-width="1.51"/><path d="M899,280L742,283L925,429Z" fill="#6ec5be" stroke="#6ec5be" stroke-width="1.51"/><path d="M754,644L796,831L938,779Z" fill="#47a8c0" stroke="#47a8c0" stroke-width="1.51"/><path d="M742,283L816,506L925,429Z" fill="#67c2bf" stroke="#67c2bf" stroke-width="1.51"/><path d="M690,94L798,175L807,-59Z" fill="#a3d8b9" stroke="#a3d8b9" stroke-width="1.51"/><path d="M798,175L742,283L899,280Z" fill="#84cdbc" stroke="#84cdbc" stroke-width="1.51"/><path d="M754,644L663,768L796,831Z" fill="#51abbf" stroke="#51abbf" stroke-width="1.51"/><path d="M615,-97L807,-59L808,-207Z" fill="#b6dfbc" stroke="#b6dfbc" stroke-width="1.51"/><path d="M742,283L626,506L816,506Z" fill="#6cc4be" stroke="#6cc4be" stroke-width="1.51"/><path d="M612,1126L821,1246L824,1102Z" fill="#547aaa" stroke="#547aaa" stroke-width="1.51"/><path d="M624,957L612,1126L824,1102Z" fill="#5987ae" stroke="#5987ae" stroke-width="1.51"/><path d="M624,957L824,1102L832,914Z" fill="#518cb2" stroke="#518cb2" stroke-width="1.51"/><path d="M796,831L624,957L832,914Z" fill="#5197b7" stroke="#5197b7" stroke-width="1.51"/><path d="M673,-244L615,-97L808,-207Z" fill="#bae2c1" stroke="#bae2c1" stroke-width="1.51"/><path d="M626,506L754,644L816,506Z" fill="#5cbdc1" stroke="#5cbdc1" stroke-width="1.51"/><path d="M612,1126L568,1233L821,1246Z" fill="#587aa3" stroke="#587aa3" stroke-width="1.51"/><path d="M638,282L626,506L742,283Z" fill="#7bcbbc" stroke="#7bcbbc" stroke-width="1.51"/><path d="M615,-97L690,94L807,-59Z" fill="#b0deb8" stroke="#b0deb8" stroke-width="1.51"/><path d="M663,768L624,957L796,831Z" fill="#579fb9" stroke="#579fb9" stroke-width="1.51"/><path d="M690,94L742,283L798,175Z" fill="#95d3ba" stroke="#95d3ba" stroke-width="1.51"/><path d="M690,94L638,282L742,283Z" fill="#92d3ba" stroke="#92d3ba" stroke-width="1.51"/><path d="M602,602L663,768L754,644Z" fill="#5cb4bf" stroke="#5cb4bf" stroke-width="1.51"/><path d="M626,506L602,602L754,644Z" fill="#61bdbf" stroke="#61bdbf" stroke-width="1.51"/><path d="M498,-35L510,71L615,-97Z" fill="#c0e5b6" stroke="#c0e5b6" stroke-width="1.51"/><path d="M467,823L519,951L624,957Z" fill="#6c9db4" stroke="#6c9db4" stroke-width="1.51"/><path d="M494,312L626,506L638,282Z" fill="#84cebc" stroke="#84cebc" stroke-width="1.51"/><path d="M467,823L624,957L663,768Z" fill="#65a4b8" stroke="#65a4b8" stroke-width="1.51"/><path d="M514,-185L615,-97L673,-244Z" fill="#c3e6bf" stroke="#c3e6bf" stroke-width="1.51"/><path d="M510,71L638,282L690,94Z" fill="#a6dbb8" stroke="#a6dbb8" stroke-width="1.51"/><path d="M615,-97L510,71L690,94Z" fill="#b5e1b7" stroke="#b5e1b7" stroke-width="1.51"/><path d="M602,602L467,823L663,768Z" fill="#67b3bd" stroke="#67b3bd" stroke-width="1.51"/><path d="M519,951L612,1126L624,957Z" fill="#6590af" stroke="#6590af" stroke-width="1.51"/><path d="M510,71L494,312L638,282Z" fill="#a1d9b8" stroke="#a1d9b8" stroke-width="1.51"/><path d="M462,602L467,823L602,602Z" fill="#74bbbd" stroke="#74bbbd" stroke-width="1.51"/><path d="M494,312L409,486L626,506Z" fill="#86cebc" stroke="#86cebc" stroke-width="1.51"/><path d="M511,1169L568,1233L612,1126Z" fill="#6880a6" stroke="#6880a6" stroke-width="1.51"/><path d="M519,951L511,1169L612,1126Z" fill="#6b8aac" stroke="#6b8aac" stroke-width="1.51"/><path d="M462,602L602,602L626,506Z" fill="#70c3be" stroke="#70c3be" stroke-width="1.51"/><path d="M409,486L462,602L626,506Z" fill="#7cc9be" stroke="#7cc9be" stroke-width="1.51"/><path d="M514,-185L498,-35L615,-97Z" fill="#c6e8b8" stroke="#c6e8b8" stroke-width="1.51"/><path d="M312,254L494,312L510,71Z" fill="#afdeb7" stroke="#afdeb7" stroke-width="1.51"/><path d="M352,978L511,1169L519,951Z" fill="#7593ad" stroke="#7593ad" stroke-width="1.51"/><path d="M511,1169L474,1229L568,1233Z" fill="#6a7fa0" stroke="#6a7fa0" stroke-width="1.51"/><path d="M462,602L282,651L467,823Z" fill="#81bebc" stroke="#81bebc" stroke-width="1.51"/><path d="M354,4L277,140L510,71Z" fill="#c8e9b4" stroke="#c8e9b4" stroke-width="1.51"/><path d="M277,140L312,254L510,71Z" fill="#c0e6b5" stroke="#c0e6b5" stroke-width="1.51"/><path d="M498,-35L354,4L510,71Z" fill="#c6e8b5" stroke="#c6e8b5" stroke-width="1.51"/><path d="M272,1055L356,1233L511,1169Z" fill="#7f89a8" stroke="#7f89a8" stroke-width="1.51"/><path d="M352,978L272,1055L511,1169Z" fill="#7f92ab" stroke="#7f92ab" stroke-width="1.51"/><path d="M354,4L498,-35L514,-185Z" fill="#ceebb4" stroke="#ceebb4" stroke-width="1.51"/><path d="M256,-160L354,4L514,-185Z" fill="#d8f0b7" stroke="#d8f0b7" stroke-width="1.51"/><path d="M467,823L352,978L519,951Z" fill="#77a1b3" stroke="#77a1b3" stroke-width="1.51"/><path d="M356,1233L474,1229L511,1169Z" fill="#72829f" stroke="#72829f" stroke-width="1.51"/><path d="M282,651L283,830L467,823Z" fill="#86b9ba" stroke="#86b9ba" stroke-width="1.51"/><path d="M312,254L409,486L494,312Z" fill="#9cd7b9" stroke="#9cd7b9" stroke-width="1.51"/><path d="M312,254L312,489L409,486Z" fill="#9dd6b9" stroke="#9dd6b9" stroke-width="1.51"/><path d="M283,830L352,978L467,823Z" fill="#81a9b5" stroke="#81a9b5" stroke-width="1.51"/><path d="M409,486L312,489L462,602Z" fill="#8bcebc" stroke="#8bcebc" stroke-width="1.51"/><path d="M312,489L282,651L462,602Z" fill="#8dcbbc" stroke="#8dcbbc" stroke-width="1.51"/><path d="M-5,1246L-134,1250L152,1297Z" fill="#8d8998" stroke="#8d8998" stroke-width="1.51"/><path d="M282,651L189,741L283,830Z" fill="#8dbebb" stroke="#8dbebb" stroke-width="1.51"/><path d="M312,254L196,255L312,489Z" fill="#aadcb7" stroke="#aadcb7" stroke-width="1.51"/><path d="M196,255L181,491L312,489Z" fill="#a5d9b9" stroke="#a5d9b9" stroke-width="1.51"/><path d="M283,830L272,1055L352,978Z" fill="#86a1b0" stroke="#86a1b0" stroke-width="1.51"/><path d="M256,-160L174,-70L354,4Z" fill="#dff2b2" stroke="#dff2b2" stroke-width="1.51"/><path d="M172,97L277,140L354,4Z" fill="#d0edb3" stroke="#d0edb3" stroke-width="1.51"/><path d="M272,1055L152,1297L356,1233Z" fill="#8589a1" stroke="#8589a1" stroke-width="1.51"/><path d="M174,-70L172,97L354,4Z" fill="#d9f0b3" stroke="#d9f0b3" stroke-width="1.51"/><path d="M87,1107L152,1297L272,1055Z" fill="#8e8da7" stroke="#8e8da7" stroke-width="1.51"/><path d="M91,917L272,1055L283,830Z" fill="#8da5b1" stroke="#8da5b1" stroke-width="1.51"/><path d="M277,140L196,255L312,254Z" fill="#bee5b5" stroke="#bee5b5" stroke-width="1.51"/><path d="M181,491L282,651L312,489Z" fill="#95d1bc" stroke="#95d1bc" stroke-width="1.51"/><path d="M172,97L196,255L277,140Z" fill="#c9e9b4" stroke="#c9e9b4" stroke-width="1.51"/><path d="M181,491L105,601L282,651Z" fill="#99cfbc" stroke="#99cfbc" stroke-width="1.51"/><path d="M189,741L91,917L283,830Z" fill="#90b4b6" stroke="#90b4b6" stroke-width="1.51"/><path d="M105,601L189,741L282,651Z" fill="#95c7bc" stroke="#95c7bc" stroke-width="1.51"/><path d="M91,917L87,1107L272,1055Z" fill="#919cac" stroke="#919cac" stroke-width="1.51"/><path d="M119,-155L174,-70L256,-160Z" fill="#e6f6b7" stroke="#e6f6b7" stroke-width="1.51"/><path d="M87,1107L-5,1246L152,1297Z" fill="#8e8b9d" stroke="#8e8b9d" stroke-width="1.51"/><path d="M-42,-79L-3,140L172,97Z" fill="#e1f3b2" stroke="#e1f3b2" stroke-width="1.51"/><path d="M-42,-79L172,97L174,-70Z" fill="#e4f5b2" stroke="#e4f5b2" stroke-width="1.51"/><path d="M172,97L-3,140L196,255Z" fill="#cfecb4" stroke="#cfecb4" stroke-width="1.51"/><path d="M-3,140L-71,312L196,255Z" fill="#c9e9b5" stroke="#c9e9b5" stroke-width="1.51"/><path d="M-23,449L181,491L196,255Z" fill="#aeddb9" stroke="#aeddb9" stroke-width="1.51"/><path d="M-71,312L-23,449L196,255Z" fill="#b9e2b6" stroke="#b9e2b6" stroke-width="1.51"/><path d="M105,601L-70,738L189,741Z" fill="#9cc7bb" stroke="#9cc7bb" stroke-width="1.51"/><path d="M-70,738L91,917L189,741Z" fill="#99bbb8" stroke="#99bbb8" stroke-width="1.51"/><path d="M-23,449L105,601L181,491Z" fill="#a4d7bb" stroke="#a4d7bb" stroke-width="1.51"/><path d="M119,-155L-42,-79L174,-70Z" fill="#ebf7b3" stroke="#ebf7b3" stroke-width="1.51"/><path d="M14,940L87,1107L91,917Z" fill="#96a2ae" stroke="#96a2ae" stroke-width="1.51"/><path d="M-34,1130L-5,1246L87,1107Z" fill="#9790a6" stroke="#9790a6" stroke-width="1.51"/><path d="M-70,738L14,940L91,917Z" fill="#9bb2b5" stroke="#9bb2b5" stroke-width="1.51"/><path d="M-23,449L-51,561L105,601Z" fill="#a6d7bd" stroke="#a6d7bd" stroke-width="1.51"/><path d="M-51,561L-70,738L105,601Z" fill="#a2cebd" stroke="#a2cebd" stroke-width="1.51"/><path d="M-36,-172L-42,-79L119,-155Z" fill="#f0f9b8" stroke="#f0f9b8" stroke-width="1.51"/><path d="M14,940L-34,1130L87,1107Z" fill="#989bab" stroke="#989bab" stroke-width="1.51"/><path d="M-143,593L-70,738L-51,561Z" fill="#a4d0c3" stroke="#a4d0c3" stroke-width="1.51"/><path d="M-42,-79L-228,9L-3,140Z" fill="#e7f6ba" stroke="#e7f6ba" stroke-width="1.51"/><path d="M-206,982L-34,1130L14,940Z" fill="#9aa1b3" stroke="#9aa1b3" stroke-width="1.51"/><path d="M-70,738L-206,982L14,940Z" fill="#9cb1ba" stroke="#9cb1ba" stroke-width="1.51"/><path d="M-206,982L-160,1152L-34,1130Z" fill="#9b9ab3" stroke="#9b9ab3" stroke-width="1.51"/><path d="M-34,1130L-134,1250L-5,1246Z" fill="#948da4" stroke="#948da4" stroke-width="1.51"/><path d="M-249,183L-71,312L-3,140Z" fill="#d1edbd" stroke="#d1edbd" stroke-width="1.51"/><path d="M-228,9L-249,183L-3,140Z" fill="#e1f3bf" stroke="#e1f3bf" stroke-width="1.51"/><path d="M-255,740L-206,982L-70,738Z" fill="#a0bcc3" stroke="#a0bcc3" stroke-width="1.51"/><path d="M-160,1152L-134,1250L-34,1130Z" fill="#9890ab" stroke="#9890ab" stroke-width="1.51"/><path d="M-71,312L-225,405L-23,449Z" fill="#b8e1c0" stroke="#b8e1c0" stroke-width="1.51"/><path d="M-143,593L-51,561L-23,449Z" fill="#a9d8c2" stroke="#a9d8c2" stroke-width="1.51"/><path d="M-225,405L-143,593L-23,449Z" fill="#b0dcc5" stroke="#b0dcc5" stroke-width="1.51"/><path d="M-208,335L-225,405L-71,312Z" fill="#bde4c4" stroke="#bde4c4" stroke-width="1.51"/><path d="M-182,-146L-42,-79L-36,-172Z" fill="#f3fbbe" stroke="#f3fbbe" stroke-width="1.51"/><path d="M-182,-146L-228,9L-42,-79Z" fill="#f2fabd" stroke="#f2fabd" stroke-width="1.51"/><path d="M-249,183L-208,335L-71,312Z" fill="#c8e9c3" stroke="#c8e9c3" stroke-width="1.51"/><path d="M-143,593L-255,740L-70,738Z" fill="#a3cac6" stroke="#a3cac6" stroke-width="1.51"/><path d="M-225,405L-255,740L-143,593Z" fill="#aad6ca" stroke="#aad6ca" stroke-width="1.51"/><path d="M-249,183L-225,405L-208,335Z" fill="#c5e8c6" stroke="#c5e8c6" stroke-width="1.51"/><path d="M-249,183L-255,740L-225,405Z" fill="#b6dfcb" stroke="#b6dfcb" stroke-width="1.51"/></svg>