<svg xmlns="http://www.w3.org/2000/svg" width="1920" height="1080"><path d="M-188,-226L119,-231L403,-259Z" fill="#f1f9c1" stroke="#f1f9c1" stroke-width="1.51"/><path d="M418,1287L83,1306L582,1292Z" fill="#778092" stroke="#778092" stroke-width="1.51"/><path d="M83,1306L-129,1331L582,1292Z" fill="#81838f" stroke="#81838f" stroke-width="1.51"/><path d="M582,1292L-129,1331L872,1304Z" fill="#6c7c90" stroke="#6c7c90" stroke-width="1.51"/><path d="M872,1304L-129,1331L1225,1309Z" fill="#517291" stroke="#517291" stroke-width="1.51"/><path d="M403,-259L914,-241L1756,-244Z" fill="#aad5cb" stroke="#aad5cb" stroke-width="1.51"/><path d="M914,-241L1083,-230L1756,-244Z" fill="#a2c6c9" stroke="#a2c6c9" stroke-width="1.51"/><path d="M1083,-230L1342,-211L1756,-244Z" fill="#a0b9c3" stroke="#a0b9c3" stroke-width="1.51"/><path d="M1537,1290L1225,1309L1921,1289Z" fill="#1c4089" stroke="#1c4089" stroke-width="1.51"/><path d="M1638,1263L1537,1290L1921,1289Z" fill="#1d3887" stroke="#1d3887" stroke-width="1.51"/><path d="M1980,804L2048,894L2065,639Z" fill="#225796" stroke="#225796" stroke-width="1.51"/><path d="M1980,666L1980,804L2065,639Z" fill="#295f9b" stroke="#295f9b" stroke-width="1.51"/><path d="M1990,102L1935,192L2068,291Z" fill="#6f7f99" stroke="#6f7f99" stroke-width="1.51"/><path d="M2048,894L1879,974L2099,1116Z" fill="#1f3f8d" stroke="#1f3f8d" stroke-width="1.51"/><path d="M1921,1289L1225,1309L2116,1291Z" fill="#1c3383" stroke="#1c3383" stroke-width="1.51"/><path d="M2099,1116L1930,1145L2116,1291Z" fill="#1a2b7d" stroke="#1a2b7d" stroke-width="1.51"/><path d="M1930,1145L1921,1289L2116,1291Z" fill="#1a2a7a" stroke="#1a2a7a" stroke-width="1.51"/><path d="M1990,102L2068,291L2129,129Z" fill="#6f7d92" stroke="#6f7d92" stroke-width="1.51"/><path d="M2055,-43L1990,102L2129,129Z" fill="#7d8291" stroke="#7d8291" stroke-width="1.51"/><path d="M2086,409L2117,548L2129,129Z" fill="#4b708e" stroke="#4b708e" stroke-width="1.51"/><path d="M2068,291L2086,409L2129,129Z" fill="#5b768f" stroke="#5b768f" stroke-width="1.51"/><path d="M2061,-161L2055,-43L2129,129Z" fill="#83848f" stroke="#83848f" stroke-width="1.51"/><path d="M2048,894L2099,1116L2131,936Z" fill="#1a3c84" stroke="#1a3c84" stroke-width="1.51"/><path d="M2117,548L2065,639L2131,936Z" fill="#235a91" stroke="#235a91" stroke-width="1.51"/><path d="M2065,639L2048,894L2131,936Z" fill="#1e4f8e" stroke="#1e4f8e" stroke-width="1.51"/><path d="M2099,1116L2116,1291L2131,936Z" fill="#192e7c" stroke="#192e7c" stroke-width="1.51"/><path d="M2129,129L2117,548L2131,936Z" fill="#306791" stroke="#306791" stroke-width="1.51"/><path d="M1879,974L1930,1145L2099,1116Z" fill="#21388d" stroke="#21388d" stroke-width="1.51"/><path d="M2086,409L1918,517L2117,548Z" fill="#3d6d98" stroke="#3d6d98" stroke-width="1.51"/><path d="M1918,517L2065,639L2117,548Z" fill="#32699a" stroke="#32699a" stroke-width="1.51"/><path d="M1969,-97L2055,-43L2061,-161Z" fill="#8c8896" stroke="#8c8896" stroke-width="1.51"/><path d="M1918,517L1980,666L2065,639Z" fill="#32689e" stroke="#32689e" stroke-width="1.51"/><path d="M2068,291L1882,370L2086,409Z" fill="#527599" stroke="#527599" stroke-width="1.51"/><path d="M1882,370L1918,517L2086,409Z" fill="#4a74a0" stroke="#4a74a0" stroke-width="1.51"/><path d="M1935,192L1882,370L2068,291Z" fill="#617c9d" stroke="#617c9d" stroke-width="1.51"/><path d="M1969,-97L1990,102L2055,-43Z" fill="#878797" stroke="#878797" stroke-width="1.51"/><path d="M1906,-217L1969,-97L2061,-161Z" fill="#928ca0" stroke="#928ca0" stroke-width="1.51"/><path d="M1980,804L1879,974L2048,894Z" fill="#234c96" stroke="#234c96" stroke-width="1.51"/><path d="M1750,1237L1638,1263L1921,1289Z" fill="#1f3487" stroke="#1f3487" stroke-width="1.51"/><path d="M1761,-91L1817,103L1969,-97Z" fill="#928fa7" stroke="#928fa7" stroke-width="1.51"/><path d="M1740,680L1787,850L1980,804Z" fill="#2b60a9" stroke="#2b60a9" stroke-width="1.51"/><path d="M1787,850L1879,974L1980,804Z" fill="#2752a0" stroke="#2752a0" stroke-width="1.51"/><path d="M1740,680L1980,804L1980,666Z" fill="#2d63a6" stroke="#2d63a6" stroke-width="1.51"/><path d="M1918,517L1814,585L1980,666Z" fill="#386ea7" stroke="#386ea7" stroke-width="1.51"/><path d="M1969,-97L1817,103L1990,102Z" fill="#88899f" stroke="#88899f" stroke-width="1.51"/><path d="M1817,103L1935,192L1990,102Z" fill="#7f87a1" stroke="#7f87a1" stroke-width="1.51"/><path d="M1814,585L1740,680L1980,666Z" fill="#366cac" stroke="#366cac" stroke-width="1.51"/><path d="M1906,-217L1761,-91L1969,-97Z" fill="#9790a9" stroke="#9790a9" stroke-width="1.51"/><path d="M1375,1277L1225,1309L1537,1290Z" fill="#1f5091" stroke="#1f5091" stroke-width="1.51"/><path d="M1787,850L1798,936L1879,974Z" fill="#2750a2" stroke="#2750a2" stroke-width="1.51"/><path d="M1882,370L1798,433L1918,517Z" fill="#4f78aa" stroke="#4f78aa" stroke-width="1.51"/><path d="M1879,974L1758,1126L1930,1145Z" fill="#263d98" stroke="#263d98" stroke-width="1.51"/><path d="M1750,1237L1921,1289L1930,1145Z" fill="#20308a" stroke="#20308a" stroke-width="1.51"/><path d="M1758,1126L1750,1237L1930,1145Z" fill="#253794" stroke="#253794" stroke-width="1.51"/><path d="M1794,189L1882,370L1935,192Z" fill="#6d82a7" stroke="#6d82a7" stroke-width="1.51"/><path d="M1817,103L1794,189L1935,192Z" fill="#7e88a7" stroke="#7e88a7" stroke-width="1.51"/><path d="M1756,-244L1761,-91L1906,-217Z" fill="#9a95b1" stroke="#9a95b1" stroke-width="1.51"/><path d="M1798,433L1814,585L1918,517Z" fill="#4376ad" stroke="#4376ad" stroke-width="1.51"/><path d="M1342,-211L1460,-171L1756,-244Z" fill="#9dadbc" stroke="#9dadbc" stroke-width="1.51"/><path d="M1798,936L1758,1126L1879,974Z" fill="#26479d" stroke="#26479d" stroke-width="1.51"/><path d="M1794,189L1798,433L1882,370Z" fill="#5e80aa" stroke="#5e80aa" stroke-width="1.51"/><path d="M1460,-171L1601,-161L1756,-244Z" fill="#9ca5b8" stroke="#9ca5b8" stroke-width="1.51"/><path d="M1794,189L1600,266L1798,433Z" fill="#6589ad" stroke="#6589ad" stroke-width="1.51"/><path d="M1600,266L1597,397L1798,433Z" fill="#578aaf" stroke="#578aaf" stroke-width="1.51"/><path d="M1622,1031L1758,1126L1798,936Z" fill="#264b9f" stroke="#264b9f" stroke-width="1.51"/><path d="M1685,639L1740,680L1814,585Z" fill="#3574af" stroke="#3574af" stroke-width="1.51"/><path d="M1798,433L1656,523L1814,585Z" fill="#427db0" stroke="#427db0" stroke-width="1.51"/><path d="M1761,-91L1672,-45L1817,103Z" fill="#9196aa" stroke="#9196aa" stroke-width="1.51"/><path d="M1672,-45L1650,103L1817,103Z" fill="#8b97ab" stroke="#8b97ab" stroke-width="1.51"/><path d="M1650,103L1794,189L1817,103Z" fill="#8391aa" stroke="#8391aa" stroke-width="1.51"/><path d="M1656,523L1685,639L1814,585Z" fill="#397ab0" stroke="#397ab0" stroke-width="1.51"/><path d="M1740,680L1591,878L1787,850Z" fill="#2866ac" stroke="#2866ac" stroke-width="1.51"/><path d="M1597,397L1656,523L1798,433Z" fill="#4b85b1" stroke="#4b85b1" stroke-width="1.51"/><path d="M1787,850L1591,878L1798,936Z" fill="#275aa7" stroke="#275aa7" stroke-width="1.51"/><path d="M1591,878L1622,1031L1798,936Z" fill="#2457a5" stroke="#2457a5" stroke-width="1.51"/><path d="M1756,-244L1601,-161L1761,-91Z" fill="#9b9db3" stroke="#9b9db3" stroke-width="1.51"/><path d="M1650,103L1600,266L1794,189Z" fill="#7993ad" stroke="#7993ad" stroke-width="1.51"/><path d="M1661,1188L1750,1237L1758,1126Z" fill="#243c94" stroke="#243c94" stroke-width="1.51"/><path d="M1685,639L1591,878L1740,680Z" fill="#2970b1" stroke="#2970b1" stroke-width="1.51"/><path d="M1622,1031L1661,1188L1758,1126Z" fill="#26459c" stroke="#26459c" stroke-width="1.51"/><path d="M1601,-161L1672,-45L1761,-91Z" fill="#999ead" stroke="#999ead" stroke-width="1.51"/><path d="M1661,1188L1638,1263L1750,1237Z" fill="#213c8f" stroke="#213c8f" stroke-width="1.51"/><path d="M1446,36L1650,103L1672,-45Z" fill="#8da1af" stroke="#8da1af" stroke-width="1.51"/><path d="M1656,523L1512,654L1685,639Z" fill="#347fb4" stroke="#347fb4" stroke-width="1.51"/><path d="M1512,654L1591,878L1685,639Z" fill="#2777b3" stroke="#2777b3" stroke-width="1.51"/><path d="M1622,1031L1484,1163L1661,1188Z" fill="#264b9f" stroke="#264b9f" stroke-width="1.51"/><path d="M1601,-161L1495,-112L1672,-45Z" fill="#99a5b1" stroke="#99a5b1" stroke-width="1.51"/><path d="M1495,-112L1446,36L1672,-45Z" fill="#95a8b1" stroke="#95a8b1" stroke-width="1.51"/><path d="M1523,266L1600,266L1650,103Z" fill="#7499b0" stroke="#7499b0" stroke-width="1.51"/><path d="M1484,1163L1638,1263L1661,1188Z" fill="#234496" stroke="#234496" stroke-width="1.51"/><path d="M1484,1163L1537,1290L1638,1263Z" fill="#204592" stroke="#204592" stroke-width="1.51"/><path d="M1597,397L1449,506L1656,523Z" fill="#458cb5" stroke="#458cb5" stroke-width="1.51"/><path d="M1449,506L1512,654L1656,523Z" fill="#3689b7" stroke="#3689b7" stroke-width="1.51"/><path d="M1518,337L1597,397L1600,266Z" fill="#5b93b2" stroke="#5b93b2" stroke-width="1.51"/><path d="M1446,36L1523,266L1650,103Z" fill="#83a1b1" stroke="#83a1b1" stroke-width="1.51"/><path d="M1512,654L1438,879L1591,878Z" fill="#2474b3" stroke="#2474b3" stroke-width="1.51"/><path d="M1591,878L1461,1041L1622,1031Z" fill="#235ba7" stroke="#235ba7" stroke-width="1.51"/><path d="M1461,1041L1484,1163L1622,1031Z" fill="#2655a4" stroke="#2655a4" stroke-width="1.51"/><path d="M1375,742L1438,879L1512,654Z" fill="#2280b8" stroke="#2280b8" stroke-width="1.51"/><path d="M1438,879L1461,1041L1591,878Z" fill="#2366ac" stroke="#2366ac" stroke-width="1.51"/><path d="M1518,337L1449,506L1597,397Z" fill="#4f93b6" stroke="#4f93b6" stroke-width="1.51"/><path d="M1523,266L1518,337L1600,266Z" fill="#6497b3" stroke="#6497b3" stroke-width="1.51"/><path d="M1460,-171L1495,-112L1601,-161Z" fill="#9bacb7" stroke="#9bacb7" stroke-width="1.51"/><path d="M1446,36L1358,127L1523,266Z" fill="#82aab5" stroke="#82aab5" stroke-width="1.51"/><path d="M1336,398L1449,506L1518,337Z" fill="#4f9ab9" stroke="#4f9ab9" stroke-width="1.51"/><path d="M1484,1163L1375,1277L1537,1290Z" fill="#224c95" stroke="#224c95" stroke-width="1.51"/><path d="M1355,-64L1446,36L1495,-112Z" fill="#97b2b4" stroke="#97b2b4" stroke-width="1.51"/><path d="M1358,127L1285,211L1523,266Z" fill="#78abb8" stroke="#78abb8" stroke-width="1.51"/><path d="M1336,398L1518,337L1523,266Z" fill="#5b9db6" stroke="#5b9db6" stroke-width="1.51"/><path d="M1285,211L1336,398L1523,266Z" fill="#65a6b9" stroke="#65a6b9" stroke-width="1.51"/><path d="M1449,506L1301,550L1512,654Z" fill="#3393bb" stroke="#3393bb" stroke-width="1.51"/><path d="M1301,550L1375,742L1512,654Z" fill="#2c8ebc" stroke="#2c8ebc" stroke-width="1.51"/><path d="M1438,879L1375,881L1461,1041Z" fill="#236caf" stroke="#236caf" stroke-width="1.51"/><path d="M1461,1041L1302,1102L1484,1163Z" fill="#285ba7" stroke="#285ba7" stroke-width="1.51"/><path d="M1460,-171L1355,-64L1495,-112Z" fill="#9bb3b7" stroke="#9bb3b7" stroke-width="1.51"/><path d="M1375,881L1309,1036L1461,1041Z" fill="#2569ae" stroke="#2569ae" stroke-width="1.51"/><path d="M1302,1102L1375,1277L1484,1163Z" fill="#2856a1" stroke="#2856a1" stroke-width="1.51"/><path d="M1375,742L1375,881L1438,879Z" fill="#237ab5" stroke="#237ab5" stroke-width="1.51"/><path d="M1342,-211L1355,-64L1460,-171Z" fill="#9db8bc" stroke="#9db8bc" stroke-width="1.51"/><path d="M1309,1036L1302,1102L1461,1041Z" fill="#2864ab" stroke="#2864ab" stroke-width="1.51"/><path d="M1336,398L1301,550L1449,506Z" fill="#419dbd" stroke="#419dbd" stroke-width="1.51"/><path d="M1355,-64L1358,127L1446,36Z" fill="#90b3b6" stroke="#90b3b6" stroke-width="1.51"/><path d="M1040,1262L872,1304L1225,1309Z" fill="#2f6597" stroke="#2f6597" stroke-width="1.51"/><path d="M1083,-230L1194,-163L1342,-211Z" fill="#a3c9c6" stroke="#a3c9c6" stroke-width="1.51"/><path d="M1342,-211L1194,-163L1355,-64Z" fill="#9ec1bf" stroke="#9ec1bf" stroke-width="1.51"/><path d="M1355,-64L1141,-41L1358,127Z" fill="#93beba" stroke="#93beba" stroke-width="1.51"/><path d="M1141,-41L1137,141L1358,127Z" fill="#8ec1bb" stroke="#8ec1bb" stroke-width="1.51"/><path d="M1203,896L1309,1036L1375,881Z" fill="#2376b4" stroke="#2376b4" stroke-width="1.51"/><path d="M1302,1102L1225,1309L1375,1277Z" fill="#265a9e" stroke="#265a9e" stroke-width="1.51"/><path d="M1301,550L1233,554L1375,742Z" fill="#2d99c0" stroke="#2d99c0" stroke-width="1.51"/><path d="M1233,554L1154,637L1375,742Z" fill="#299ac1" stroke="#299ac1" stroke-width="1.51"/><path d="M1203,896L1375,881L1375,742Z" fill="#2280b8" stroke="#2280b8" stroke-width="1.51"/><path d="M1154,637L1203,896L1375,742Z" fill="#1f90c0" stroke="#1f90c0" stroke-width="1.51"/><path d="M403,-259L783,-208L914,-241Z" fill="#bde4c6" stroke="#bde4c6" stroke-width="1.51"/><path d="M1205,1105L1225,1309L1302,1102Z" fill="#2c62a8" stroke="#2c62a8" stroke-width="1.51"/><path d="M1285,211L1155,273L1336,398Z" fill="#64b1be" stroke="#64b1be" stroke-width="1.51"/><path d="M1181,425L1301,550L1336,398Z" fill="#45a7c0" stroke="#45a7c0" stroke-width="1.51"/><path d="M1137,141L1285,211L1358,127Z" fill="#81babc" stroke="#81babc" stroke-width="1.51"/><path d="M1155,273L1181,425L1336,398Z" fill="#57afbf" stroke="#57afbf" stroke-width="1.51"/><path d="M1194,-163L1141,-41L1355,-64Z" fill="#9ec5bb" stroke="#9ec5bb" stroke-width="1.51"/><path d="M1181,425L1233,554L1301,550Z" fill="#3ba6c2" stroke="#3ba6c2" stroke-width="1.51"/><path d="M1203,896L1161,979L1309,1036Z" fill="#2777b4" stroke="#2777b4" stroke-width="1.51"/><path d="M1205,1105L1302,1102L1309,1036Z" fill="#2969ae" stroke="#2969ae" stroke-width="1.51"/><path d="M1161,979L1205,1105L1309,1036Z" fill="#2b70b1" stroke="#2b70b1" stroke-width="1.51"/><path d="M1137,141L1155,273L1285,211Z" fill="#79bbbd" stroke="#79bbbd" stroke-width="1.51"/><path d="M1154,637L1016,802L1203,896Z" fill="#2a95bf" stroke="#2a95bf" stroke-width="1.51"/><path d="M1205,1105L1040,1262L1225,1309Z" fill="#2e64a0" stroke="#2e64a0" stroke-width="1.51"/><path d="M1181,425L1154,637L1233,554Z" fill="#37a8c3" stroke="#37a8c3" stroke-width="1.51"/><path d="M1036,1093L1040,1262L1205,1105Z" fill="#376cac" stroke="#376cac" stroke-width="1.51"/><path d="M982,589L1154,637L1181,425Z" fill="#3aacc3" stroke="#3aacc3" stroke-width="1.51"/><path d="M1046,-101L1141,-41L1194,-163Z" fill="#a2ccbd" stroke="#a2ccbd" stroke-width="1.51"/><path d="M1161,979L1076,988L1205,1105Z" fill="#2f77b2" stroke="#2f77b2" stroke-width="1.51"/><path d="M1076,988L1036,1093L1205,1105Z" fill="#3375b0" stroke="#3375b0" stroke-width="1.51"/><path d="M1155,273L1002,373L1181,425Z" fill="#5cb6bf" stroke="#5cb6bf" stroke-width="1.51"/><path d="M1076,988L1161,979L1203,896Z" fill="#2c7eb5" stroke="#2c7eb5" stroke-width="1.51"/><path d="M1016,802L1076,988L1203,896Z" fill="#2e88b9" stroke="#2e88b9" stroke-width="1.51"/><path d="M994,56L1137,141L1141,-41Z" fill="#94c9bc" stroke="#94c9bc" stroke-width="1.51"/><path d="M1002,373L982,589L1181,425Z" fill="#4db4c2" stroke="#4db4c2" stroke-width="1.51"/><path d="M1083,-230L1046,-101L1194,-163Z" fill="#a4cfc3" stroke="#a4cfc3" stroke-width="1.51"/><path d="M997,646L1016,802L1154,637Z" fill="#31a2c2" stroke="#31a2c2" stroke-width="1.51"/><path d="M1137,141L1048,229L1155,273Z" fill="#7abfbd" stroke="#7abfbd" stroke-width="1.51"/><path d="M982,589L997,646L1154,637Z" fill="#38a9c3" stroke="#38a9c3" stroke-width="1.51"/><path d="M1048,229L1002,373L1155,273Z" fill="#6bbdbf" stroke="#6bbdbf" stroke-width="1.51"/><path d="M1046,-101L994,56L1141,-41Z" fill="#9ecebc" stroke="#9ecebc" stroke-width="1.51"/><path d="M994,56L1048,229L1137,141Z" fill="#8ac8bd" stroke="#8ac8bd" stroke-width="1.51"/><path d="M1036,1093L928,1103L1040,1262Z" fill="#3c72ad" stroke="#3c72ad" stroke-width="1.51"/><path d="M1016,802L924,868L1076,988Z" fill="#348eba" stroke="#348eba" stroke-width="1.51"/><path d="M914,-241L1046,-101L1083,-230Z" fill="#a8d5c6" stroke="#a8d5c6" stroke-width="1.51"/><path d="M872,1032L928,1103L1036,1093Z" fill="#3e7db0" stroke="#3e7db0" stroke-width="1.51"/><path d="M924,-84L994,56L1046,-101Z" fill="#a1d3bc" stroke="#a1d3bc" stroke-width="1.51"/><path d="M994,56L902,84L1048,229Z" fill="#90cebd" stroke="#90cebd" stroke-width="1.51"/><path d="M931,260L1002,373L1048,229Z" fill="#6ec2bf" stroke="#6ec2bf" stroke-width="1.51"/><path d="M872,1032L1036,1093L1076,988Z" fill="#397eb2" stroke="#397eb2" stroke-width="1.51"/><path d="M924,868L872,1032L1076,988Z" fill="#3988b6" stroke="#3988b6" stroke-width="1.51"/><path d="M853,521L982,589L1002,373Z" fill="#4cb9c3" stroke="#4cb9c3" stroke-width="1.51"/><path d="M928,1103L872,1304L1040,1262Z" fill="#3b70a3" stroke="#3b70a3" stroke-width="1.51"/><path d="M914,-241L924,-84L1046,-101Z" fill="#a8d8c1" stroke="#a8d8c1" stroke-width="1.51"/><path d="M902,84L931,260L1048,229Z" fill="#83cbbd" stroke="#83cbbd" stroke-width="1.51"/><path d="M912,349L853,521L1002,373Z" fill="#5cbec1" stroke="#5cbec1" stroke-width="1.51"/><path d="M931,260L912,349L1002,373Z" fill="#67c2c0" stroke="#67c2c0" stroke-width="1.51"/><path d="M997,646L838,634L1016,802Z" fill="#38a8c3" stroke="#38a8c3" stroke-width="1.51"/><path d="M838,634L924,868L1016,802Z" fill="#39a2c0" stroke="#39a2c0" stroke-width="1.51"/><path d="M924,-84L902,84L994,56Z" fill="#9dd4bb" stroke="#9dd4bb" stroke-width="1.51"/><path d="M982,589L838,634L997,646Z" fill="#3fafc3" stroke="#3fafc3" stroke-width="1.51"/><path d="M741,1257L582,1292L872,1304Z" fill="#4d7296" stroke="#4d7296" stroke-width="1.51"/><path d="M853,521L838,634L982,589Z" fill="#48b4c3" stroke="#48b4c3" stroke-width="1.51"/><path d="M403,-259L634,-172L783,-208Z" fill="#c5e8c3" stroke="#c5e8c3" stroke-width="1.51"/><path d="M713,733L725,821L838,634Z" fill="#51acbf" stroke="#51acbf" stroke-width="1.51"/><path d="M749,1146L741,1257L872,1304Z" fill="#4b749e" stroke="#4b749e" stroke-width="1.51"/><path d="M709,135L749,259L902,84Z" fill="#97d4ba" stroke="#97d4ba" stroke-width="1.51"/><path d="M758,-47L902,84L924,-84Z" fill="#a6d8ba" stroke="#a6d8ba" stroke-width="1.51"/><path d="M914,-241L783,-208L924,-84Z" fill="#afdcc4" stroke="#afdcc4" stroke-width="1.51"/><path d="M838,634L725,821L924,868Z" fill="#48a5bf" stroke="#48a5bf" stroke-width="1.51"/><path d="M751,1001L872,1032L924,868Z" fill="#478bb5" stroke="#478bb5" stroke-width="1.51"/><path d="M749,1146L872,1304L928,1103Z" fill="#4975a7" stroke="#4975a7" stroke-width="1.51"/><path d="M749,259L912,349L931,260Z" fill="#77c8be" stroke="#77c8be" stroke-width="1.51"/><path d="M902,84L749,259L931,260Z" fill="#89cebc" stroke="#89cebc" stroke-width="1.51"/><path d="M783,-208L758,-47L924,-84Z" fill="#b0ddbd" stroke="#b0ddbd" stroke-width="1.51"/><path d="M725,821L751,1001L924,868Z" fill="#4c96b8" stroke="#4c96b8" stroke-width="1.51"/><path d="M872,1032L749,1146L928,1103Z" fill="#4a7eae" stroke="#4a7eae" stroke-width="1.51"/><path d="M702,337L853,521L912,349Z" fill="#68c2bf" stroke="#68c2bf" stroke-width="1.51"/><path d="M749,259L702,337L912,349Z" fill="#78c9bd" stroke="#78c9bd" stroke-width="1.51"/><path d="M758,-47L709,135L902,84Z" fill="#a3d8b9" stroke="#a3d8b9" stroke-width="1.51"/><path d="M702,337L685,552L853,521Z" fill="#66c2c0" stroke="#66c2c0" stroke-width="1.51"/><path d="M751,1001L749,1146L872,1032Z" fill="#5084af" stroke="#5084af" stroke-width="1.51"/><path d="M685,552L838,634L853,521Z" fill="#55bac1" stroke="#55bac1" stroke-width="1.51"/><path d="M685,552L713,733L838,634Z" fill="#57b5c0" stroke="#57b5c0" stroke-width="1.51"/><path d="M603,402L685,552L702,337Z" fill="#73c7bd" stroke="#73c7bd" stroke-width="1.51"/><path d="M725,821L623,994L751,1001Z" fill="#5794b4" stroke="#5794b4" stroke-width="1.51"/><path d="M634,-172L626,-110L758,-47Z" fill="#bae2b9" stroke="#bae2b9" stroke-width="1.51"/><path d="M634,-172L758,-47L783,-208Z" fill="#b8e1bd" stroke="#b8e1bd" stroke-width="1.51"/><path d="M603,402L618,529L685,552Z" fill="#6fc5be" stroke="#6fc5be" stroke-width="1.51"/><path d="M685,552L601,679L713,733Z" fill="#5fb7bf" stroke="#5fb7bf" stroke-width="1.51"/><path d="M709,135L633,140L749,259Z" fill="#9ad6b9" stroke="#9ad6b9" stroke-width="1.51"/><path d="M554,1187L741,1257L749,1146Z" fill="#597aa4" stroke="#597aa4" stroke-width="1.51"/><path d="M623,994L749,1146L751,1001Z" fill="#5888af" stroke="#5888af" stroke-width="1.51"/><path d="M633,140L709,135L758,-47Z" fill="#a8dbb8" stroke="#a8dbb8" stroke-width="1.51"/><path d="M626,-110L633,140L758,-47Z" fill="#b2dfb7" stroke="#b2dfb7" stroke-width="1.51"/><path d="M633,140L560,201L749,259Z" fill="#99d6b9" stroke="#99d6b9" stroke-width="1.51"/><path d="M623,994L554,1187L749,1146Z" fill="#6084ab" stroke="#6084ab" stroke-width="1.51"/><path d="M560,201L702,337L749,259Z" fill="#8bd1ba" stroke="#8bd1ba" stroke-width="1.51"/><path d="M562,803L623,994L725,821Z" fill="#5e9fb7" stroke="#5e9fb7" stroke-width="1.51"/><path d="M554,1187L582,1292L741,1257Z" fill="#5b799b" stroke="#5b799b" stroke-width="1.51"/><path d="M713,733L562,803L725,821Z" fill="#5aa9bc" stroke="#5aa9bc" stroke-width="1.51"/><path d="M601,679L562,803L713,733Z" fill="#61b0be" stroke="#61b0be" stroke-width="1.51"/><path d="M560,201L603,402L702,337Z" fill="#88d0ba" stroke="#88d0ba" stroke-width="1.51"/><path d="M618,529L601,679L685,552Z" fill="#67bebf" stroke="#67bebf" stroke-width="1.51"/><path d="M626,-110L431,121L633,140Z" fill="#b8e2b6" stroke="#b8e2b6" stroke-width="1.51"/><path d="M560,201L487,201L603,402Z" fill="#9ad7b9" stroke="#9ad7b9" stroke-width="1.51"/><path d="M454,646L601,679L618,529Z" fill="#71bfbe" stroke="#71bfbe" stroke-width="1.51"/><path d="M603,402L462,488L618,529Z" fill="#7dc9bd" stroke="#7dc9bd" stroke-width="1.51"/><path d="M562,803L448,870L623,994Z" fill="#6ca1b5" stroke="#6ca1b5" stroke-width="1.51"/><path d="M476,1099L554,1187L623,994Z" fill="#6c89ab" stroke="#6c89ab" stroke-width="1.51"/><path d="M381,-16L431,121L626,-110Z" fill="#c6e8b5" stroke="#c6e8b5" stroke-width="1.51"/><path d="M431,121L560,201L633,140Z" fill="#afdeb7" stroke="#afdeb7" stroke-width="1.51"/><path d="M403,-259L626,-110L634,-172Z" fill="#c9e9bf" stroke="#c9e9bf" stroke-width="1.51"/><path d="M487,201L380,377L603,402Z" fill="#97d5b9" stroke="#97d5b9" stroke-width="1.51"/><path d="M462,488L454,646L618,529Z" fill="#7bc7be" stroke="#7bc7be" stroke-width="1.51"/><path d="M448,870L432,1018L623,994Z" fill="#7299b1" stroke="#7299b1" stroke-width="1.51"/><path d="M403,-259L381,-16L626,-110Z" fill="#d0edb9" stroke="#d0edb9" stroke-width="1.51"/><path d="M432,1018L476,1099L623,994Z" fill="#7191ae" stroke="#7191ae" stroke-width="1.51"/><path d="M431,121L487,201L560,201Z" fill="#b1e0b7" stroke="#b1e0b7" stroke-width="1.51"/><path d="M454,646L562,803L601,679Z" fill="#70b7bd" stroke="#70b7bd" stroke-width="1.51"/><path d="M380,377L462,488L603,402Z" fill="#8dd0bb" stroke="#8dd0bb" stroke-width="1.51"/><path d="M554,1187L418,1287L582,1292Z" fill="#687c99" stroke="#687c99" stroke-width="1.51"/><path d="M454,646L448,870L562,803Z" fill="#75b2bb" stroke="#75b2bb" stroke-width="1.51"/><path d="M476,1099L418,1287L554,1187Z" fill="#7283a2" stroke="#7283a2" stroke-width="1.51"/><path d="M244,-110L381,-16L403,-259Z" fill="#ddf2b8" stroke="#ddf2b8" stroke-width="1.51"/><path d="M265,1235L83,1306L418,1287Z" fill="#7f8494" stroke="#7f8494" stroke-width="1.51"/><path d="M332,846L448,870L454,646Z" fill="#80b4b9" stroke="#80b4b9" stroke-width="1.51"/><path d="M270,658L332,846L454,646Z" fill="#89bebc" stroke="#89bebc" stroke-width="1.51"/><path d="M315,545L454,646L462,488Z" fill="#88cbbd" stroke="#88cbbd" stroke-width="1.51"/><path d="M336,1126L418,1287L476,1099Z" fill="#7c87a5" stroke="#7c87a5" stroke-width="1.51"/><path d="M431,121L273,193L487,201Z" fill="#bce4b6" stroke="#bce4b6" stroke-width="1.51"/><path d="M273,193L380,377L487,201Z" fill="#b0dfb7" stroke="#b0dfb7" stroke-width="1.51"/><path d="M432,1018L336,1126L476,1099Z" fill="#7d90ab" stroke="#7d90ab" stroke-width="1.51"/><path d="M332,846L432,1018L448,870Z" fill="#7fa4b3" stroke="#7fa4b3" stroke-width="1.51"/><path d="M380,377L315,545L462,488Z" fill="#93d2bb" stroke="#93d2bb" stroke-width="1.51"/><path d="M235,-182L244,-110L403,-259Z" fill="#e3f4bc" stroke="#e3f4bc" stroke-width="1.51"/><path d="M332,846L260,983L432,1018Z" fill="#85a1b0" stroke="#85a1b0" stroke-width="1.51"/><path d="M315,545L270,658L454,646Z" fill="#8ec8bc" stroke="#8ec8bc" stroke-width="1.51"/><path d="M336,1126L265,1235L418,1287Z" fill="#80869e" stroke="#80869e" stroke-width="1.51"/><path d="M119,-231L235,-182L403,-259Z" fill="#e8f6c0" stroke="#e8f6c0" stroke-width="1.51"/><path d="M381,-16L259,49L431,121Z" fill="#ceecb4" stroke="#ceecb4" stroke-width="1.51"/><path d="M260,983L336,1126L432,1018Z" fill="#8597ac" stroke="#8597ac" stroke-width="1.51"/><path d="M259,49L273,193L431,121Z" fill="#caeab4" stroke="#caeab4" stroke-width="1.51"/><path d="M273,193L236,354L380,377Z" fill="#aedeb7" stroke="#aedeb7" stroke-width="1.51"/><path d="M236,354L315,545L380,377Z" fill="#9fd7ba" stroke="#9fd7ba" stroke-width="1.51"/><path d="M244,-110L259,49L381,-16Z" fill="#d9f0b3" stroke="#d9f0b3" stroke-width="1.51"/><path d="M236,354L168,491L315,545Z" fill="#a0d6bb" stroke="#a0d6bb" stroke-width="1.51"/><path d="M270,658L113,861L332,846Z" fill="#8fb9b9" stroke="#8fb9b9" stroke-width="1.51"/><path d="M113,861L260,983L332,846Z" fill="#8eabb3" stroke="#8eabb3" stroke-width="1.51"/><path d="M92,1122L265,1235L336,1126Z" fill="#8c8ca6" stroke="#8c8ca6" stroke-width="1.51"/><path d="M260,983L92,1122L336,1126Z" fill="#8d96aa" stroke="#8d96aa" stroke-width="1.51"/><path d="M168,491L270,658L315,545Z" fill="#97cfbc" stroke="#97cfbc" stroke-width="1.51"/><path d="M135,-111L168,47L244,-110Z" fill="#e4f4b2" stroke="#e4f4b2" stroke-width="1.51"/><path d="M244,-110L168,47L259,49Z" fill="#ddf1b3" stroke="#ddf1b3" stroke-width="1.51"/><path d="M114,990L92,1122L260,983Z" fill="#919cac" stroke="#919cac" stroke-width="1.51"/><path d="M113,861L114,990L260,983Z" fill="#91a6b0" stroke="#91a6b0" stroke-width="1.51"/><path d="M168,491L130,637L270,658Z" fill="#9acebc" stroke="#9acebc" stroke-width="1.51"/><path d="M130,637L113,861L270,658Z" fill="#96c3bb" stroke="#96c3bb" stroke-width="1.51"/><path d="M116,210L236,354L273,193Z" fill="#bde4b6" stroke="#bde4b6" stroke-width="1.51"/><path d="M259,49L168,47L273,193Z" fill="#d2edb4" stroke="#d2edb4" stroke-width="1.51"/><path d="M168,47L116,210L273,193Z" fill="#cfecb4" stroke="#cfecb4" stroke-width="1.51"/><path d="M92,1122L83,1306L265,1235Z" fill="#8b8a9c" stroke="#8b8a9c" stroke-width="1.51"/><path d="M85,422L168,491L236,354Z" fill="#aadbb9" stroke="#aadbb9" stroke-width="1.51"/><path d="M235,-182L135,-111L244,-110Z" fill="#e7f6b7" stroke="#e7f6b7" stroke-width="1.51"/><path d="M116,210L31,347L236,354Z" fill="#bae3b6" stroke="#bae3b6" stroke-width="1.51"/><path d="M31,347L85,422L236,354Z" fill="#b2deb8" stroke="#b2deb8" stroke-width="1.51"/><path d="M119,-231L135,-111L235,-182Z" fill="#ebf7bb" stroke="#ebf7bb" stroke-width="1.51"/><path d="M-188,-226L-50,-160L119,-231Z" fill="#f6fbc4" stroke="#f6fbc4" stroke-width="1.51"/><path d="M85,422L-70,551L130,637Z" fill="#a6d7bd" stroke="#a6d7bd" stroke-width="1.51"/><path d="M-24,722L113,861L130,637Z" fill="#9cc3ba" stroke="#9cc3ba" stroke-width="1.51"/><path d="M135,-111L-35,-62L168,47Z" fill="#e8f6b2" stroke="#e8f6b2" stroke-width="1.51"/><path d="M-35,-62L37,106L168,47Z" fill="#e3f4b2" stroke="#e3f4b2" stroke-width="1.51"/><path d="M37,106L116,210L168,47Z" fill="#d8efb3" stroke="#d8efb3" stroke-width="1.51"/><path d="M85,422L130,637L168,491Z" fill="#a3d7bb" stroke="#a3d7bb" stroke-width="1.51"/><path d="M-19,1270L83,1306L92,1122Z" fill="#908b9b" stroke="#908b9b" stroke-width="1.51"/><path d="M113,861L-13,994L114,990Z" fill="#98a7af" stroke="#98a7af" stroke-width="1.51"/><path d="M-13,994L92,1122L114,990Z" fill="#989dac" stroke="#989dac" stroke-width="1.51"/><path d="M-31,284L31,347L116,210Z" fill="#c3e6b7" stroke="#c3e6b7" stroke-width="1.51"/><path d="M119,-231L-50,-160L135,-111Z" fill="#f1faba" stroke="#f1faba" stroke-width="1.51"/><path d="M-50,-160L-35,-62L135,-111Z" fill="#f0f9b7" stroke="#f0f9b7" stroke-width="1.51"/><path d="M-19,1270L-129,1331L83,1306Z" fill="#8b8795" stroke="#8b8795" stroke-width="1.51"/><path d="M-24,722L-62,810L113,861Z" fill="#9dbcbb" stroke="#9dbcbb" stroke-width="1.51"/><path d="M-70,551L-24,722L130,637Z" fill="#a3cebe" stroke="#a3cebe" stroke-width="1.51"/><path d="M-41,1131L-19,1270L92,1122Z" fill="#968fa7" stroke="#968fa7" stroke-width="1.51"/><path d="M-62,810L-13,994L113,861Z" fill="#9bb0b5" stroke="#9bb0b5" stroke-width="1.51"/><path d="M37,106L-31,284L116,210Z" fill="#cfebb6" stroke="#cfebb6" stroke-width="1.51"/><path d="M-13,994L-41,1131L92,1122Z" fill="#9999ac" stroke="#9999ac" stroke-width="1.51"/><path d="M31,347L-70,551L85,422Z" fill="#b1ddbc" stroke="#b1ddbc" stroke-width="1.51"/><path d="M-31,284L-211,362L31,347Z" fill="#bee4bf" stroke="#bee4bf" stroke-width="1.51"/><path d="M-211,362L-70,551L31,347Z" fill="#b5dfc2" stroke="#b5dfc2" stroke-width="1.51"/><path d="M-35,-62L-201,37L37,106Z" fill="#e8f6ba" stroke="#e8f6ba" stroke-width="1.51"/><path d="M-142,274L-31,284L37,106Z" fill="#ceebbb" stroke="#ceebbb" stroke-width="1.51"/><path d="M-201,37L-142,274L37,106Z" fill="#ddf2bd" stroke="#ddf2bd" stroke-width="1.51"/><path d="M-211,362L-169,530L-70,551Z" fill="#b1ddc8" stroke="#b1ddc8" stroke-width="1.51"/><path d="M-216,862L-219,961L-62,810Z" fill="#9fb3c2" stroke="#9fb3c2" stroke-width="1.51"/><path d="M-142,274L-211,362L-31,284Z" fill="#c3e7c2" stroke="#c3e7c2" stroke-width="1.51"/><path d="M-70,551L-157,711L-24,722Z" fill="#a4ccc4" stroke="#a4ccc4" stroke-width="1.51"/><path d="M-41,1131L-125,1109L-19,1270Z" fill="#9891ac" stroke="#9891ac" stroke-width="1.51"/><path d="M-125,1109L-129,1331L-19,1270Z" fill="#928ca3" stroke="#928ca3" stroke-width="1.51"/><path d="M-62,810L-219,961L-13,994Z" fill="#9dadbb" stroke="#9dadbb" stroke-width="1.51"/><path d="M-219,961L-125,1109L-13,994Z" fill="#9ca1b7" stroke="#9ca1b7" stroke-width="1.51"/><path d="M-125,1109L-41,1131L-13,994Z" fill="#9a9ab1" stroke="#9a9ab1" stroke-width="1.51"/><path d="M-157,711L-62,810L-24,722Z" fill="#a0c4c3" stroke="#a0c4c3" stroke-width="1.51"/><path d="M-50,-160L-221,-112L-35,-62Z" fill="#f4fbbf" stroke="#f4fbbf" stroke-width="1.51"/><path d="M-221,-112L-201,37L-35,-62Z" fill="#f1fabf" stroke="#f1fabf" stroke-width="1.51"/><path d="M-169,530L-157,711L-70,551Z" fill="#a8d3c8" stroke="#a8d3c8" stroke-width="1.51"/><path d="M-188,-226L-221,-112L-50,-160Z" fill="#f8fcc8" stroke="#f8fcc8" stroke-width="1.51"/><path d="M-157,711L-216,862L-62,810Z" fill="#a0bfc4" stroke="#a0bfc4" stroke-width="1.51"/><path d="M-219,961L-129,1331L-125,1109Z" fill="#9c95b4" stroke="#9c95b4" stroke-width="1.51"/><path d="M-201,37L-211,362L-142,274Z" fill="#d2edc4" stroke="#d2edc4" stroke-width="1.51"/><path d="M-169,530L-216,862L-157,711Z" fill="#a5caca" stroke="#a5caca" stroke-width="1.51"/><path d="M-211,362L-216,862L-169,530Z" fill="#aad5cc" stroke="#aad5cc" stroke-width="1.51"/><path d="M-221,-112L-211,362L-201,37Z" fill="#e5f5c4" stroke="#e5f5c4" stroke-width="1.51"/><path d="M-219,961L-216,862L-211,362Z" fill="#a4c8cc" stroke="#a4c8cc" stroke-width="1.51"/><path d="M-221,-112L-219,961L-211,362Z" fill="#bbe2ca" stroke="#bbe2ca" stroke-width="1.51"/></svg>